<svg width="50" height="22" viewBox="0 0 50 22" fill="none" xmlns="http://www.w3.org/2000/svg">
<path d="M49.4271 9.74414C49.4265 9.7436 49.4261 9.74298 49.4254 9.74245L39.2199 0.51664C38.4554 -0.174498 37.2187 -0.171926 36.4577 0.522671C35.6968 1.21718 35.6997 2.34051 36.4642 3.03174L43.3162 9.22581H1.95312C0.874414 9.22581 0 10.0201 0 11C0 11.9799 0.874414 12.7742 1.95312 12.7742H43.3161L36.4643 18.9683C35.6998 19.6595 35.6969 20.7828 36.4578 21.4773C37.2188 22.172 38.4556 22.1744 39.22 21.4834L49.4255 12.2575C49.4261 12.257 49.4265 12.2564 49.4272 12.2559C50.1922 11.5623 50.1897 10.4354 49.4271 9.74414Z" fill="url(#paint0_linear)"/>
<defs>
<linearGradient id="paint0_linear" x1="0" y1="11" x2="50" y2="11" gradientUnits="userSpaceOnUse">
<stop stop-color="#FFB703"/>
<stop offset="1" stop-color="#FB8500"/>
</linearGradient>
</defs>
</svg>
